<svg xmlns="http://www.w3.org/2000/svg" xmlns:xlink="http://www.w3.org/1999/xlink" width="532" zoomAndPan="magnify" viewBox="0 0 398.88 319.499995" height="426" preserveAspectRatio="xMidYMid meet" version="1.0"><defs><g/><clipPath id="0680ff61ee"><path d="M 149 98 L 250 98 L 250 213.613281 L 149 213.613281 Z M 149 98 " clip-rule="nonzero"/></clipPath><clipPath id="0b1ca4ed80"><path d="M 124.558594 148 L 139 148 L 139 185 L 124.558594 185 Z M 124.558594 148 " clip-rule="nonzero"/></clipPath><clipPath id="22960d8965"><path d="M 260 148 L 274.324219 148 L 274.324219 185 L 260 185 Z M 260 148 " clip-rule="nonzero"/></clipPath><clipPath id="ccfca03214"><path d="M 171 89 L 274.324219 89 L 274.324219 213.613281 L 171 213.613281 Z M 171 89 " clip-rule="nonzero"/></clipPath></defs><g clip-path="url(#0680ff61ee)"><path fill="#142d3e" d="M 248.785156 165.332031 C 248.257812 162.511719 248.828125 159.765625 249.253906 156.988281 C 249.921875 152.65625 250.066406 148.410156 249.679688 144.269531 C 249.027344 137.234375 246.847656 130.484375 243.121094 124.046875 C 236.574219 112.734375 227.054688 105.03125 214.636719 100.960938 C 213.46875 100.578125 212.289062 100.246094 211.097656 99.964844 C 208.628906 99.375 206.113281 98.996094 203.566406 98.804688 C 203.242188 98.78125 202.921875 98.675781 202.601562 98.609375 L 196.097656 98.609375 C 194.148438 98.902344 192.1875 99.121094 190.257812 99.5 C 182.820312 100.957031 176.050781 103.964844 169.960938 108.480469 C 162.761719 113.824219 157.308594 120.605469 153.582031 128.75 C 151.324219 133.6875 149.90625 138.859375 149.308594 144.261719 C 149.273438 144.550781 149.246094 144.839844 149.21875 145.128906 C 148.734375 150.25 149.332031 155.277344 150.199219 160.296875 C 150.664062 163.015625 150.148438 165.660156 149.570312 168.292969 C 148.277344 174.164062 149.265625 179.605469 152.726562 184.511719 C 153.882812 186.152344 155.179688 187.554688 156.613281 188.726562 C 159.800781 191.332031 163.660156 192.769531 168.125 193.085938 C 168.421875 193.109375 168.71875 193.125 169.191406 193.152344 C 169.191406 194.855469 169.09375 196.566406 169.222656 198.257812 C 169.34375 199.804688 169.53125 201.394531 170.015625 202.855469 C 170.820312 205.289062 172.46875 207.167969 174.84375 208.183594 C 177.332031 209.246094 179.914062 210.097656 182.648438 211.113281 L 182.648438 208.417969 C 182.648438 204.597656 182.640625 200.777344 182.652344 196.957031 C 182.652344 194.679688 184.019531 193.140625 186.003906 193.136719 C 188.003906 193.132812 189.367188 194.652344 189.371094 196.9375 C 189.382812 201.765625 189.375 206.589844 189.375 211.417969 L 189.375 212.808594 C 191.585938 213.074219 193.753906 213.335938 196.101562 213.617188 L 196.101562 212.332031 C 196.101562 207.132812 196.085938 201.929688 196.113281 196.734375 C 196.125 194.046875 198.585938 192.367188 200.863281 193.46875 C 202.25 194.140625 202.839844 195.3125 202.832031 196.835938 C 202.820312 201.925781 202.828125 207.011719 202.828125 212.101562 L 202.828125 213.605469 C 205.097656 213.34375 207.257812 213.097656 209.554688 212.828125 L 209.554688 211.539062 C 209.554688 206.601562 209.535156 201.664062 209.5625 196.726562 C 209.574219 194.09375 211.949219 192.410156 214.21875 193.414062 C 215.671875 194.058594 216.289062 195.257812 216.285156 196.835938 C 216.273438 201.101562 216.277344 205.367188 216.277344 209.632812 L 216.277344 210.996094 C 219.417969 209.964844 222.558594 209.296875 225.230469 207.535156 C 228.257812 205.539062 229.621094 202.53125 229.71875 198.953125 C 229.773438 197.050781 229.730469 195.152344 229.730469 193.355469 C 231.734375 192.976562 233.667969 192.757812 235.511719 192.234375 C 238.035156 191.511719 240.320312 190.308594 242.28125 188.742188 C 247.929688 184.246094 250.9375 176.773438 249.523438 169.304688 C 249.269531 167.980469 249.035156 166.652344 248.785156 165.332031 Z M 172.664062 172.914062 C 172.332031 172.910156 172.007812 172.894531 171.683594 172.863281 C 166.441406 172.351562 162.570312 168.140625 162.476562 162.613281 C 162.4375 160.40625 162.46875 158.199219 162.46875 155.996094 C 162.46875 153.863281 162.445312 151.730469 162.476562 149.601562 C 162.554688 144.078125 166.132812 139.789062 171.621094 139.417969 C 173.425781 139.292969 175.238281 139.21875 177.058594 139.1875 C 180.433594 139.128906 183.8125 139.21875 187.167969 139.445312 C 192.40625 139.804688 196.066406 144.234375 196.097656 149.484375 C 196.164062 162.160156 185.304688 173.019531 172.664062 172.914062 Z M 208.535156 185.414062 C 207.210938 186.714844 205.234375 186.742188 203.796875 185.375 C 202.367188 184.007812 201.019531 182.550781 199.484375 180.972656 C 197.960938 182.515625 196.613281 183.960938 195.183594 185.316406 C 193.179688 187.210938 190.195312 186.425781 189.492188 183.847656 C 189.167969 182.667969 189.464844 181.589844 190.292969 180.738281 C 192.566406 178.410156 194.847656 176.09375 197.195312 173.84375 C 198.546875 172.550781 200.382812 172.5625 201.742188 173.867188 C 204.0625 176.089844 206.335938 178.367188 208.5625 180.683594 C 209.929688 182.097656 209.859375 184.109375 208.535156 185.414062 Z M 236.234375 164.105469 C 235.878906 169.285156 231.328125 172.964844 226.097656 172.910156 C 213.398438 172.78125 202.984375 162.375 202.832031 149.660156 C 202.761719 143.824219 207.171875 139.351562 213.136719 139.253906 C 215.300781 139.21875 217.46875 139.246094 219.632812 139.246094 C 221.761719 139.246094 223.890625 139.230469 226.019531 139.25 C 231.644531 139.308594 235.945312 142.921875 236.308594 148.539062 C 236.640625 153.707031 236.589844 158.9375 236.234375 164.105469 Z M 236.234375 164.105469 " fill-opacity="1" fill-rule="nonzero"/></g><path fill="#142d3e" d="M 268.703125 138.671875 C 268.660156 140.59375 268.695312 142.515625 268.695312 144.402344 L 263.414062 144.402344 L 263.414062 133 C 261.71875 133 260.195312 133.003906 258.664062 133 C 256.046875 132.988281 255.289062 132.417969 255.023438 130.257812 C 253.042969 114.386719 241.71875 100.730469 225.800781 93.46875 C 220.125 90.878906 213.863281 89.097656 207.234375 88.316406 C 177.84375 84.867188 150.503906 101.359375 144.636719 126.097656 C 144.289062 127.574219 144.097656 129.074219 143.871094 130.570312 C 143.613281 132.277344 142.761719 132.964844 140.714844 132.988281 C 139.066406 133.011719 137.417969 132.992188 135.589844 132.992188 L 135.589844 144.398438 L 130.28125 144.398438 C 130.28125 140.425781 130.066406 136.421875 130.320312 132.4375 C 131.070312 120.820312 135.359375 110.195312 143.570312 100.847656 C 155.347656 87.429688 171.003906 79.34375 190.597656 77.222656 C 210.285156 75.089844 229.0625 80.042969 243.296875 89.953125 C 254.277344 97.59375 262.554688 108.1875 266.472656 120.746094 C 268.304688 126.628906 268.832031 132.617188 268.703125 138.671875 Z M 268.703125 138.671875 " fill-opacity="1" fill-rule="nonzero"/><path fill="#142d3e" d="M 154.726562 189.300781 C 154.003906 189.445312 153.222656 189.527344 152.394531 189.53125 C 150.675781 189.542969 148.953125 189.558594 147.238281 189.515625 C 142.996094 189.410156 139.542969 186.632812 139.519531 183.050781 C 139.445312 172.3125 139.457031 161.566406 139.527344 150.828125 C 139.550781 147.273438 142.902344 144.527344 147.230469 144.324219 C 147.363281 144.316406 147.496094 144.3125 147.628906 144.308594 C 147.609375 144.519531 147.585938 144.738281 147.5625 144.972656 C 147.035156 150.558594 147.765625 156 148.554688 160.582031 C 148.960938 162.957031 148.519531 165.316406 147.941406 167.9375 C 146.527344 174.355469 147.679688 180.253906 151.363281 185.476562 C 152.375 186.910156 153.503906 188.191406 154.726562 189.300781 Z M 154.726562 189.300781 " fill-opacity="1" fill-rule="nonzero"/><path fill="#142d3e" d="M 259.414062 166.863281 C 259.414062 171.996094 259.425781 177.132812 259.414062 182.269531 C 259.398438 186.742188 256.175781 189.503906 250.933594 189.53125 C 249.214844 189.542969 247.492188 189.566406 245.777344 189.515625 C 245.222656 189.503906 244.679688 189.4375 244.160156 189.335938 C 246.792969 187.007812 248.839844 184.054688 250.105469 180.730469 C 251.535156 176.972656 251.898438 172.914062 251.15625 168.992188 C 251.019531 168.273438 250.890625 167.554688 250.753906 166.835938 C 250.644531 166.234375 250.535156 165.632812 250.421875 165.03125 C 250.007812 162.828125 250.363281 160.597656 250.742188 158.238281 C 250.792969 157.90625 250.847656 157.578125 250.898438 157.246094 C 251.574219 152.855469 251.726562 148.503906 251.351562 144.304688 C 251.375 144.304688 251.394531 144.304688 251.417969 144.308594 C 256.097656 144.445312 259.382812 147.320312 259.40625 151.320312 C 259.4375 156.496094 259.414062 161.679688 259.414062 166.863281 Z M 259.414062 166.863281 " fill-opacity="1" fill-rule="nonzero"/><g clip-path="url(#0b1ca4ed80)"><path fill="#142d3e" d="M 138.226562 167.007812 C 138.226562 172.046875 138.183594 177.089844 138.261719 182.128906 C 138.277344 183.160156 137.835938 183.667969 136.828125 184.074219 C 131.746094 186.125 124.714844 183.933594 124.84375 177.933594 C 125.007812 170.539062 124.832031 163.144531 124.902344 155.746094 C 124.957031 150.429688 131.496094 147.199219 136.875 149.742188 C 137.839844 150.199219 138.304688 150.730469 138.261719 151.746094 C 138.152344 154.285156 138.207031 156.828125 138.203125 159.375 C 138.199219 161.917969 138.203125 164.460938 138.203125 167.007812 C 138.207031 167.007812 138.21875 167.007812 138.226562 167.007812 Z M 138.226562 167.007812 " fill-opacity="1" fill-rule="nonzero"/></g><g clip-path="url(#22960d8965)"><path fill="#142d3e" d="M 273.96875 178.878906 C 273.9375 181.328125 272.394531 183.171875 269.699219 184.160156 C 266.8125 185.214844 263.953125 185.097656 261.300781 183.621094 C 260.894531 183.394531 260.699219 182.671875 260.695312 182.171875 C 260.652344 177.085938 260.667969 172 260.667969 166.910156 L 260.679688 166.910156 C 260.679688 161.867188 260.722656 156.828125 260.648438 151.789062 C 260.632812 150.722656 261.109375 150.171875 262.136719 149.703125 C 267.308594 147.339844 273.824219 150.273438 273.949219 155.28125 C 274.148438 163.140625 274.066406 171.011719 273.96875 178.878906 Z M 273.96875 178.878906 " fill-opacity="1" fill-rule="nonzero"/></g><path fill="#96a4ac" d="M 182.386719 152.800781 C 183.550781 152.800781 184.589844 152.78125 185.628906 152.804688 C 187.625 152.84375 188.878906 154.109375 188.867188 156.042969 C 188.855469 157.988281 187.621094 159.234375 185.625 159.285156 C 184.585938 159.308594 183.550781 159.289062 182.390625 159.289062 C 182.390625 160.367188 182.402344 161.371094 182.386719 162.371094 C 182.355469 164.515625 181.125 165.789062 179.101562 165.777344 C 177.144531 165.773438 175.929688 164.488281 175.910156 162.390625 C 175.898438 161.410156 175.90625 160.433594 175.90625 159.285156 C 174.820312 159.285156 173.757812 159.304688 172.695312 159.28125 C 170.265625 159.234375 168.835938 157.191406 169.605469 154.878906 C 170.027344 153.597656 171.066406 152.835938 172.523438 152.796875 C 173.597656 152.765625 174.675781 152.792969 175.902344 152.792969 C 175.902344 151.761719 175.894531 150.761719 175.902344 149.765625 C 175.917969 147.59375 177.117188 146.308594 179.121094 146.296875 C 181.128906 146.289062 182.363281 147.578125 182.382812 149.722656 C 182.398438 150.707031 182.386719 151.683594 182.386719 152.800781 Z M 182.386719 152.800781 " fill-opacity="1" fill-rule="nonzero"/><path fill="#f09f0e" d="M 225.566406 149.339844 C 225.5625 151.367188 224.183594 152.734375 222.15625 152.730469 C 220.121094 152.722656 218.777344 151.359375 218.777344 149.3125 C 218.785156 147.285156 220.15625 145.921875 222.191406 145.929688 C 224.226562 145.933594 225.578125 147.296875 225.566406 149.339844 Z M 225.566406 149.339844 " fill-opacity="1" fill-rule="nonzero"/><path fill="#45aee3" d="M 218.777344 156.171875 C 218.757812 158.195312 217.367188 159.550781 215.335938 159.53125 C 213.308594 159.511719 211.972656 158.132812 211.992188 156.085938 C 212.007812 154.066406 213.394531 152.710938 215.429688 152.730469 C 217.457031 152.75 218.792969 154.125 218.777344 156.171875 Z M 218.777344 156.171875 " fill-opacity="1" fill-rule="nonzero"/><path fill="#bc1818" d="M 225.574219 156.113281 C 225.578125 154.082031 226.957031 152.71875 228.988281 152.730469 C 231.011719 152.738281 232.363281 154.109375 232.363281 156.152344 C 232.367188 158.171875 230.972656 159.550781 228.949219 159.53125 C 226.917969 159.515625 225.566406 158.144531 225.574219 156.113281 Z M 225.574219 156.113281 " fill-opacity="1" fill-rule="nonzero"/><path fill="#89bd24" d="M 222.136719 159.535156 C 224.167969 159.519531 225.542969 160.867188 225.570312 162.898438 C 225.597656 164.929688 224.230469 166.328125 222.21875 166.335938 C 220.175781 166.34375 218.796875 164.996094 218.78125 162.976562 C 218.765625 160.9375 220.117188 159.550781 222.136719 159.535156 Z M 222.136719 159.535156 " fill-opacity="1" fill-rule="nonzero"/><g clip-path="url(#ccfca03214)"><path fill="#2a4556" d="M 273.949219 155.28125 C 273.820312 150.273438 267.304688 147.335938 262.136719 149.703125 C 261.109375 150.171875 260.632812 150.722656 260.648438 151.789062 C 260.722656 156.828125 260.679688 161.867188 260.679688 166.910156 L 260.667969 166.910156 C 260.667969 172 260.652344 177.085938 260.695312 182.171875 C 260.699219 182.671875 260.894531 183.394531 261.300781 183.621094 C 263.953125 185.101562 266.8125 185.21875 269.699219 184.160156 C 272.394531 183.171875 273.941406 181.328125 273.96875 178.878906 C 274.066406 171.011719 274.148438 163.140625 273.949219 155.28125 Z M 263.414062 144.398438 L 268.695312 144.398438 C 268.695312 142.515625 268.660156 140.59375 268.703125 138.667969 C 268.832031 132.617188 268.304688 126.628906 266.46875 120.746094 C 262.550781 108.1875 254.273438 97.59375 243.292969 89.953125 C 237.242188 90.460938 231.382812 91.652344 225.796875 93.457031 C 241.714844 100.726562 253.039062 114.378906 255.019531 130.25 C 255.289062 132.40625 256.046875 132.980469 258.660156 132.988281 C 260.191406 132.996094 261.71875 132.988281 263.410156 132.988281 L 263.410156 144.398438 Z M 259.410156 151.316406 C 259.386719 147.316406 256.101562 144.4375 251.417969 144.300781 C 251.398438 144.300781 251.375 144.300781 251.355469 144.300781 C 251.730469 148.496094 251.578125 152.851562 250.902344 157.242188 C 250.847656 157.574219 250.796875 157.902344 250.746094 158.230469 C 250.367188 160.59375 250.007812 162.820312 250.421875 165.023438 C 250.535156 165.625 250.648438 166.226562 250.757812 166.832031 C 250.890625 167.550781 251.023438 168.269531 251.160156 168.984375 C 251.902344 172.90625 251.539062 176.964844 250.109375 180.726562 C 248.84375 184.046875 246.796875 187 244.160156 189.332031 C 244.683594 189.433594 245.226562 189.496094 245.78125 189.511719 C 247.496094 189.558594 249.21875 189.535156 250.9375 189.527344 C 256.179688 189.496094 259.40625 186.738281 259.414062 182.261719 C 259.425781 177.128906 259.417969 171.992188 259.417969 166.855469 C 259.414062 161.679688 259.4375 156.496094 259.410156 151.316406 Z M 249.523438 169.300781 C 249.273438 167.980469 249.035156 166.652344 248.785156 165.332031 C 248.257812 162.511719 248.828125 159.765625 249.253906 156.988281 C 249.921875 152.65625 250.066406 148.410156 249.679688 144.269531 C 249.027344 137.234375 246.847656 130.484375 243.121094 124.046875 C 236.574219 112.734375 227.054688 105.03125 214.636719 100.960938 C 213.46875 100.578125 212.289062 100.246094 211.097656 99.964844 C 195.746094 108.742188 183.648438 122.570312 177.054688 139.1875 C 180.429688 139.132812 183.808594 139.222656 187.164062 139.449219 C 192.402344 139.804688 196.0625 144.238281 196.09375 149.488281 C 196.164062 162.167969 185.304688 173.023438 172.664062 172.917969 C 172.332031 172.914062 172.007812 172.898438 171.683594 172.863281 C 172.453125 185.808594 176.355469 197.914062 182.644531 208.417969 C 182.644531 204.597656 182.636719 200.777344 182.648438 196.957031 C 182.652344 194.679688 184.015625 193.140625 186 193.136719 C 188.003906 193.132812 189.363281 194.652344 189.367188 196.9375 C 189.378906 201.765625 189.371094 206.589844 189.371094 211.417969 L 189.371094 212.808594 C 191.582031 213.074219 193.75 213.335938 196.097656 213.617188 L 196.097656 212.332031 C 196.097656 207.132812 196.082031 201.929688 196.109375 196.734375 C 196.121094 194.046875 198.582031 192.367188 200.859375 193.46875 C 202.246094 194.140625 202.835938 195.3125 202.828125 196.835938 C 202.816406 201.925781 202.824219 207.011719 202.824219 212.101562 L 202.824219 213.605469 C 205.09375 213.34375 207.253906 213.097656 209.550781 212.828125 L 209.550781 211.539062 C 209.550781 206.601562 209.53125 201.664062 209.558594 196.726562 C 209.574219 194.09375 211.949219 192.410156 214.214844 193.414062 C 215.667969 194.058594 216.289062 195.257812 216.28125 196.835938 C 216.269531 201.101562 216.273438 205.367188 216.273438 209.632812 L 216.273438 210.996094 C 219.417969 209.964844 222.554688 209.296875 225.226562 207.535156 C 228.253906 205.539062 229.617188 202.53125 229.71875 198.953125 C 229.769531 197.050781 229.726562 195.152344 229.726562 193.355469 C 231.730469 192.976562 233.664062 192.757812 235.507812 192.234375 C 238.03125 191.511719 240.316406 190.308594 242.277344 188.742188 C 247.929688 184.238281 250.933594 176.765625 249.523438 169.300781 Z M 208.535156 185.414062 C 207.210938 186.714844 205.234375 186.742188 203.796875 185.375 C 202.367188 184.007812 201.019531 182.550781 199.484375 180.972656 C 197.960938 182.515625 196.613281 183.960938 195.183594 185.316406 C 193.179688 187.210938 190.195312 186.425781 189.492188 183.847656 C 189.167969 182.667969 189.464844 181.589844 190.292969 180.738281 C 192.566406 178.410156 194.847656 176.09375 197.195312 173.84375 C 198.546875 172.550781 200.382812 172.5625 201.742188 173.867188 C 204.0625 176.089844 206.335938 178.367188 208.5625 180.683594 C 209.929688 182.097656 209.859375 184.109375 208.535156 185.414062 Z M 236.234375 164.105469 C 235.878906 169.285156 231.328125 172.964844 226.097656 172.910156 C 213.398438 172.78125 202.984375 162.375 202.832031 149.660156 C 202.761719 143.824219 207.171875 139.351562 213.136719 139.253906 C 215.300781 139.21875 217.46875 139.246094 219.632812 139.246094 C 221.761719 139.246094 223.890625 139.230469 226.019531 139.25 C 231.644531 139.308594 235.945312 142.921875 236.308594 148.539062 C 236.640625 153.707031 236.589844 158.9375 236.234375 164.105469 Z M 236.234375 164.105469 " fill-opacity="1" fill-rule="nonzero"/></g><g fill="#3b485a" fill-opacity="1"><g transform="translate(123.007754, 238.753056)"><g><path d="M 3.699219 0 L 13.566406 0 L 13.566406 -7.398438 L 6.167969 -7.398438 L 6.167969 -4.933594 L 11.101562 -4.933594 L 11.101562 -2.464844 L 3.699219 -2.464844 Z M 1.234375 -2.464844 L 3.699219 -2.464844 L 3.699219 -9.867188 L 1.234375 -9.867188 Z M 3.699219 -9.867188 L 13.566406 -9.867188 L 13.566406 -12.332031 L 3.699219 -12.332031 Z M 3.699219 -9.867188 "/></g></g></g><g fill="#3b485a" fill-opacity="1"><g transform="translate(137.799496, 238.753056)"><g><path d="M 1.234375 0 L 3.699219 0 L 3.699219 -2.464844 L 11.101562 -2.464844 L 11.101562 0 L 13.566406 0 L 13.566406 -9.867188 L 11.101562 -9.867188 L 11.101562 -4.933594 L 3.699219 -4.933594 L 3.699219 -9.867188 L 1.234375 -9.867188 Z M 3.699219 -9.867188 L 11.101562 -9.867188 L 11.101562 -12.332031 L 3.699219 -12.332031 Z M 3.699219 -9.867188 "/></g></g></g><g fill="#3b485a" fill-opacity="1"><g transform="translate(152.591239, 238.753056)"><g><path d="M 11.101562 0 L 13.566406 0 L 13.566406 -12.332031 L 11.101562 -12.332031 L 11.101562 -9.867188 L 8.632812 -9.867188 L 8.632812 -7.398438 L 11.101562 -7.398438 Z M 1.234375 0 L 3.699219 0 L 3.699219 -7.398438 L 6.167969 -7.398438 L 6.167969 -9.867188 L 3.699219 -9.867188 L 3.699219 -12.332031 L 1.234375 -12.332031 Z M 6.167969 -4.933594 L 8.632812 -4.933594 L 8.632812 -7.398438 L 6.167969 -7.398438 Z M 6.167969 -4.933594 "/></g></g></g><g fill="#3b485a" fill-opacity="1"><g transform="translate(167.382982, 238.753056)"><g><path d="M 1.234375 0 L 8.632812 0 L 8.632812 -2.464844 L 6.167969 -2.464844 L 6.167969 -9.867188 L 8.632812 -9.867188 L 8.632812 -12.332031 L 1.234375 -12.332031 L 1.234375 -9.867188 L 3.699219 -9.867188 L 3.699219 -2.464844 L 1.234375 -2.464844 Z M 1.234375 0 "/></g></g></g><g fill="#3b485a" fill-opacity="1"><g transform="translate(177.244143, 238.753056)"><g><path d="M 11.101562 0 L 13.566406 0 L 13.566406 -12.332031 L 11.101562 -12.332031 L 11.101562 -4.933594 L 8.632812 -4.933594 L 8.632812 -2.464844 L 11.101562 -2.464844 Z M 1.234375 0 L 3.699219 0 L 3.699219 -7.398438 L 6.167969 -7.398438 L 6.167969 -9.867188 L 3.699219 -9.867188 L 3.699219 -12.332031 L 1.234375 -12.332031 Z M 6.167969 -4.933594 L 8.632812 -4.933594 L 8.632812 -7.398438 L 6.167969 -7.398438 Z M 6.167969 -4.933594 "/></g></g></g><g fill="#3b485a" fill-opacity="1"><g transform="translate(192.035886, 238.753056)"><g><path d="M 3.699219 0 L 13.566406 0 L 13.566406 -7.398438 L 6.167969 -7.398438 L 6.167969 -4.933594 L 11.101562 -4.933594 L 11.101562 -2.464844 L 3.699219 -2.464844 Z M 1.234375 -2.464844 L 3.699219 -2.464844 L 3.699219 -9.867188 L 1.234375 -9.867188 Z M 3.699219 -9.867188 L 13.566406 -9.867188 L 13.566406 -12.332031 L 3.699219 -12.332031 Z M 3.699219 -9.867188 "/></g></g></g><g fill="#3b485a" fill-opacity="1"><g transform="translate(206.827629, 238.753056)"><g><path d="M 3.699219 0 L 13.566406 0 L 13.566406 -7.398438 L 6.167969 -7.398438 L 6.167969 -4.933594 L 11.101562 -4.933594 L 11.101562 -2.464844 L 3.699219 -2.464844 Z M 1.234375 -2.464844 L 3.699219 -2.464844 L 3.699219 -9.867188 L 1.234375 -9.867188 Z M 3.699219 -9.867188 L 13.566406 -9.867188 L 13.566406 -12.332031 L 3.699219 -12.332031 Z M 3.699219 -9.867188 "/></g></g></g><g fill="#3b485a" fill-opacity="1"><g transform="translate(221.619371, 238.753056)"><g><path d="M 1.234375 0 L 13.566406 0 L 13.566406 -2.464844 L 3.699219 -2.464844 L 3.699219 -4.933594 L 11.101562 -4.933594 L 11.101562 -7.398438 L 3.699219 -7.398438 L 3.699219 -9.867188 L 13.566406 -9.867188 L 13.566406 -12.332031 L 1.234375 -12.332031 Z M 1.234375 0 "/></g></g></g><g fill="#3b485a" fill-opacity="1"><g transform="translate(236.411114, 238.753056)"><g><path d="M 11.101562 0 L 13.566406 0 L 13.566406 -12.332031 L 11.101562 -12.332031 L 11.101562 -4.933594 L 8.632812 -4.933594 L 8.632812 -2.464844 L 11.101562 -2.464844 Z M 1.234375 0 L 3.699219 0 L 3.699219 -7.398438 L 6.167969 -7.398438 L 6.167969 -9.867188 L 3.699219 -9.867188 L 3.699219 -12.332031 L 1.234375 -12.332031 Z M 6.167969 -4.933594 L 8.632812 -4.933594 L 8.632812 -7.398438 L 6.167969 -7.398438 Z M 6.167969 -4.933594 "/></g></g></g><g fill="#3b485a" fill-opacity="1"><g transform="translate(251.202857, 238.753056)"><g><path d="M 1.234375 0 L 8.632812 0 L 8.632812 -2.464844 L 6.167969 -2.464844 L 6.167969 -9.867188 L 8.632812 -9.867188 L 8.632812 -12.332031 L 1.234375 -12.332031 L 1.234375 -9.867188 L 3.699219 -9.867188 L 3.699219 -2.464844 L 1.234375 -2.464844 Z M 1.234375 0 "/></g></g></g><g fill="#3b485a" fill-opacity="1"><g transform="translate(261.064018, 238.753056)"><g><path d="M 1.234375 0 L 13.566406 0 L 13.566406 -2.464844 L 3.699219 -2.464844 L 3.699219 -4.933594 L 11.101562 -4.933594 L 11.101562 -7.398438 L 3.699219 -7.398438 L 3.699219 -9.867188 L 13.566406 -9.867188 L 13.566406 -12.332031 L 1.234375 -12.332031 Z M 1.234375 0 "/></g></g></g></svg>